<mxfile host="app.diagrams.net" modified="2022-11-14T14:49:07.477Z" agent="5.0 (Windows NT 10.0; Win64; x64) AppleWebKit/537.36 (KHTML, like Gecko) Chrome/107.0.0.0 Safari/537.36" etag="FjBILo5D1FNmhpp7K4-N" version="20.5.3" type="github">
  <diagram id="C5RBs43oDa-KdzZeNtuy" name="Page-1">
    <mxGraphModel dx="868" dy="482" grid="1" gridSize="10" guides="1" tooltips="1" connect="1" arrows="1" fold="1" page="1" pageScale="1" pageWidth="827" pageHeight="1169" math="0" shadow="0">
      <root>
        <mxCell id="WIyWlLk6GJQsqaUBKTNV-0" />
        <mxCell id="WIyWlLk6GJQsqaUBKTNV-1" parent="WIyWlLk6GJQsqaUBKTNV-0" />
        <mxCell id="_jNlxMRiJOmvLTo9FNzx-0" value="" style="edgeStyle=orthogonalEdgeStyle;rounded=0;orthogonalLoop=1;jettySize=auto;html=1;" edge="1" parent="WIyWlLk6GJQsqaUBKTNV-1" source="_jNlxMRiJOmvLTo9FNzx-1" target="_jNlxMRiJOmvLTo9FNzx-3">
          <mxGeometry relative="1" as="geometry" />
        </mxCell>
        <mxCell id="_jNlxMRiJOmvLTo9FNzx-1" value="Carga tabla Empresa" style="rounded=1;whiteSpace=wrap;html=1;fontSize=12;glass=0;strokeWidth=1;shadow=0;" vertex="1" parent="WIyWlLk6GJQsqaUBKTNV-1">
          <mxGeometry x="160" y="80" width="120" height="40" as="geometry" />
        </mxCell>
        <mxCell id="_jNlxMRiJOmvLTo9FNzx-2" value="" style="edgeStyle=orthogonalEdgeStyle;rounded=0;orthogonalLoop=1;jettySize=auto;html=1;" edge="1" parent="WIyWlLk6GJQsqaUBKTNV-1" source="_jNlxMRiJOmvLTo9FNzx-3" target="_jNlxMRiJOmvLTo9FNzx-6">
          <mxGeometry relative="1" as="geometry" />
        </mxCell>
        <mxCell id="_jNlxMRiJOmvLTo9FNzx-3" value="Se carga la tabla Empresa" style="rounded=1;whiteSpace=wrap;html=1;fontSize=12;glass=0;strokeWidth=1;shadow=0;" vertex="1" parent="WIyWlLk6GJQsqaUBKTNV-1">
          <mxGeometry x="160" y="180" width="120" height="40" as="geometry" />
        </mxCell>
        <mxCell id="_jNlxMRiJOmvLTo9FNzx-4" value="&lt;div style=&quot;text-align: justify;&quot;&gt;&lt;span style=&quot;background-color: initial;&quot;&gt;Se ponen en mayúsculas y se remplazan los espacios por guiones bajos en las columnas:&lt;/span&gt;&lt;/div&gt;" style="text;html=1;strokeColor=none;fillColor=none;align=center;verticalAlign=middle;whiteSpace=wrap;rounded=0;" vertex="1" parent="WIyWlLk6GJQsqaUBKTNV-1">
          <mxGeometry x="427" y="180" width="400" height="30" as="geometry" />
        </mxCell>
        <mxCell id="_jNlxMRiJOmvLTo9FNzx-5" value="" style="edgeStyle=orthogonalEdgeStyle;rounded=0;orthogonalLoop=1;jettySize=auto;html=1;" edge="1" parent="WIyWlLk6GJQsqaUBKTNV-1" source="_jNlxMRiJOmvLTo9FNzx-6" target="_jNlxMRiJOmvLTo9FNzx-7">
          <mxGeometry relative="1" as="geometry" />
        </mxCell>
        <mxCell id="_jNlxMRiJOmvLTo9FNzx-6" value="Se genera el archivo &quot;2_EMPRESAS_ICIAS.QVD&quot;" style="rounded=1;whiteSpace=wrap;html=1;fontSize=12;glass=0;strokeWidth=1;shadow=0;" vertex="1" parent="WIyWlLk6GJQsqaUBKTNV-1">
          <mxGeometry x="25" y="260" width="390" height="40" as="geometry" />
        </mxCell>
        <mxCell id="_jNlxMRiJOmvLTo9FNzx-7" value="Se borra la tabla &quot;Empresa&quot;" style="rounded=1;whiteSpace=wrap;html=1;fontSize=12;glass=0;strokeWidth=1;shadow=0;" vertex="1" parent="WIyWlLk6GJQsqaUBKTNV-1">
          <mxGeometry x="25" y="380" width="390" height="40" as="geometry" />
        </mxCell>
        <mxCell id="_jNlxMRiJOmvLTo9FNzx-8" value="&lt;ul&gt;&lt;li&gt;ORIGEN&lt;/li&gt;&lt;li&gt;COMPAÑÍA ORIGEN&lt;/li&gt;&lt;li&gt;LLAVE&lt;/li&gt;&lt;li&gt;COMPAÑÍA HOMOLAGADA&lt;/li&gt;&lt;/ul&gt;" style="text;strokeColor=none;fillColor=none;html=1;whiteSpace=wrap;verticalAlign=middle;overflow=hidden;" vertex="1" parent="WIyWlLk6GJQsqaUBKTNV-1">
          <mxGeometry x="490" y="180" width="220" height="110" as="geometry" />
        </mxCell>
      </root>
    </mxGraphModel>
  </diagram>
</mxfile>
